<svg width="98" height="48" viewBox="0 0 98 48" fill="none" xmlns="http://www.w3.org/2000/svg">
<g clip-path="url(#clip0_9779_9727)">
<mask id="mask0_9779_9727" style="mask-type:luminance" maskUnits="userSpaceOnUse" x="-1" y="0" width="99" height="48">
<path d="M-0.00195312 0H97.4059V48H-0.00195312V0Z" fill="white"/>
</mask>
<g mask="url(#mask0_9779_9727)">
<path d="M52.4311 31.9688C55.541 28.4888 58.6508 25.0086 61.7607 21.5286C61.9164 21.3544 62.188 21.3516 62.3473 21.5226C64.3097 23.6305 66.2721 25.7383 68.2347 27.846C69.5683 26.3953 70.9021 24.9446 72.2359 23.4938C72.3593 23.3596 72.5582 23.3268 72.7182 23.414C76.8265 25.6549 80.9347 27.8957 85.0428 30.1364L66.8041 10.04C65.03 8.08541 61.9291 8.17883 60.2761 10.2367L52.2021 20.2879L37.347 4.40814C35.6234 2.56583 32.6908 2.59897 31.0094 4.47978L13.1914 24.4107C19.4597 19.9721 25.728 15.5338 31.9963 11.0954C32.1569 10.9817 32.3766 11.0027 32.5127 11.1449C39.1522 18.0862 45.7916 25.0275 52.4311 31.9688Z" fill="#006ED1"/>
<path d="M12.5078 30.0393L31.2405 16.9003C31.6024 16.6552 32.0902 16.719 32.3769 17.049L45.9744 32.6895C40.9204 29.5181 35.8662 26.3467 30.8121 23.1752C24.7106 25.4633 18.6092 27.7513 12.5078 30.0393Z" fill="#006ED1"/>
<path d="M12.0114 36.6263L10.4394 38.6676H7.63559V44.4746H5.20714V38.6676H1.52344L3.09546 36.6263H12.0114Z" fill="#121212"/>
<path d="M23.0979 44.4746H19.8483L18.1003 42.3982H14.3699V44.4746H11.9414V40.4625H18.769C19.5199 40.4625 20.1065 40.1222 20.1065 39.5826C20.1065 38.9725 19.602 38.6676 18.769 38.6676H11.9414L13.5251 36.6263H18.5696C20.3527 36.6263 22.6052 37.1894 22.6052 39.4301C22.6052 40.6501 21.8426 41.6591 20.5523 41.9172C20.8221 42.1166 21.1154 42.3982 21.655 42.9495L23.0979 44.4746Z" fill="#121212"/>
<path d="M33.0802 42.4568L31.52 44.4746H23.9648V36.6263H33.0568L31.4847 38.6676H26.4049V39.6061H32.6228L31.2267 41.3893H26.4049V42.4568H33.0802Z" fill="#121212"/>
<path d="M43.8135 44.4746H40.1416L37.7718 42.4099C36.9623 41.7059 36.5869 41.3657 36.3171 41.096C36.3289 41.4597 36.3522 41.8467 36.3522 42.2221V44.4746H33.9121V36.6263H36.3522V38.4445C36.3522 38.9256 36.3289 39.4066 36.3054 39.8173C36.6104 39.5356 37.0327 39.1368 37.7483 38.5386L40.0125 36.6263H43.532L40.5286 38.8788C39.4846 39.6648 39.0037 40.0165 38.4992 40.3217C38.945 40.6268 39.555 41.0607 40.5639 41.882L43.8135 44.4746Z" fill="#121212"/>
<path d="M47.932 44.4746L49.3985 42.4568H51.3694C51.8386 42.4568 52.3899 42.4568 52.7653 42.4803C52.5542 42.1986 52.2258 41.7177 51.9676 41.3424L50.5599 39.2658L46.8762 44.4746H44.002L49.0348 37.377C49.3634 36.9196 49.8443 36.4973 50.6068 36.4973C51.3341 36.4973 51.8151 36.8845 52.1554 37.377L57.0592 44.4746H47.932Z" fill="#121212"/>
<path d="M69.0588 44.4746H65.8093L64.0613 42.3982H60.3308V44.4746H57.9023V40.4625H64.7299C65.4808 40.4625 66.0674 40.1222 66.0674 39.5826C66.0674 38.9725 65.5629 38.6676 64.7299 38.6676H57.9023L59.486 36.6263H64.5305C66.3136 36.6263 68.5661 37.1894 68.5661 39.4301C68.5661 40.6501 67.8036 41.6591 66.513 41.9172C66.783 42.1166 67.0762 42.3982 67.616 42.9495L69.0588 44.4746Z" fill="#121212"/>
<path d="M72.3892 44.4746H69.9609V36.6263H72.3892V44.4746Z" fill="#121212"/>
<path d="M84.097 41.049C84.097 43.4187 82.4663 44.6035 79.2049 44.6035C75.4273 44.6035 73.7969 43.4187 73.7969 41.049V36.6262H76.2134V41.049C76.2134 42.2103 76.7061 42.5859 79.2049 42.5859C81.0704 42.5859 81.6568 42.1516 81.6568 41.049V36.6262H84.097V41.049Z" fill="#121212"/>
<path d="M92.7425 39.7585C94.6548 39.7585 95.6872 40.4741 95.6872 41.9055C95.6872 43.5126 94.7135 44.4746 92.3202 44.4746H85.0117L86.5718 42.4568H92.508C93.0828 42.4568 93.3408 42.2927 93.3408 41.882C93.3408 41.483 93.0828 41.3189 92.508 41.3189H88.2377C86.2199 41.3189 85.2931 40.4155 85.2931 39.0664C85.2931 37.5884 86.2785 36.6263 88.6601 36.6263H95.4759L93.9157 38.6676H88.4724C87.9093 38.6676 87.6394 38.8084 87.6394 39.2072C87.6394 39.6061 87.9093 39.7585 88.4724 39.7585H92.7425Z" fill="#121212"/>
</g>
</g>
<defs>
<clipPath id="clip0_9779_9727">
<rect width="97.4079" height="48" fill="white"/>
</clipPath>
</defs>
</svg>
