<svg width="60" height="60" viewBox="0 0 60 60" fill="none" xmlns="http://www.w3.org/2000/svg">
<path d="M22.5 52.5V37.5C22.5 36.1739 23.0268 34.9021 23.9645 33.9645C24.9021 33.0268 26.1739 32.5 27.5 32.5H32.5C33.8261 32.5 35.0979 33.0268 36.0355 33.9645C36.9732 34.9021 37.5 36.1739 37.5 37.5V52.5M12.5 30H7.5L30 7.5L52.5 30H47.5V47.5C47.5 48.8261 46.9732 50.0979 46.0355 51.0355C45.0979 51.9732 43.8261 52.5 42.5 52.5H17.5C16.1739 52.5 14.9021 51.9732 13.9645 51.0355C13.0268 50.0979 12.5 48.8261 12.5 47.5V30Z" stroke="#FF7701" stroke-width="2" stroke-linecap="round" stroke-linejoin="round"/>
</svg>
