<svg width="98" height="48" viewBox="0 0 98 48" fill="none" xmlns="http://www.w3.org/2000/svg">
<g clip-path="url(#clip0_9712_303)">
<mask id="mask0_9712_303" style="mask-type:luminance" maskUnits="userSpaceOnUse" x="-1" y="0" width="99" height="48">
<path d="M-0.00195312 0H97.4059V48H-0.00195312V0Z" fill="white"/>
</mask>
<g mask="url(#mask0_9712_303)">
<path d="M52.4302 31.9688C55.54 28.4888 58.6498 25.0086 61.7597 21.5286C61.9154 21.3544 62.1871 21.3516 62.3463 21.5226C64.3087 23.6305 66.2711 25.7383 68.2337 27.846C69.5674 26.3953 70.9011 24.9446 72.2349 23.4938C72.3583 23.3596 72.5572 23.3268 72.7172 23.414C76.8255 25.6549 80.9337 27.8957 85.0419 30.1364L66.8031 10.04C65.0291 8.08541 61.9281 8.17883 60.2751 10.2367L52.2011 20.2879L37.3461 4.40814C35.6225 2.56583 32.6898 2.59897 31.0084 4.47978L13.1904 24.4107C19.4587 19.9721 25.7271 15.5338 31.9954 11.0954C32.156 10.9817 32.3756 11.0027 32.5117 11.1449C39.1512 18.0862 45.7906 25.0275 52.4302 31.9688Z" fill="#006ED1"/>
<path d="M12.5059 30.0393L31.2385 16.9003C31.6004 16.6552 32.0882 16.719 32.3749 17.049L45.9724 32.6895C40.9184 29.5181 35.8643 26.3467 30.8101 23.1752C24.7087 25.4633 18.6073 27.7513 12.5059 30.0393Z" fill="#006ED1"/>
<path d="M12.0105 36.6263L10.4384 38.6676H7.63461V44.4746H5.20617V38.6676H1.52246L3.09449 36.6263H12.0105Z" fill="white"/>
<path d="M23.096 44.4746H19.8464L18.0984 42.3982H14.3679V44.4746H11.9395V40.4625H18.7671C19.5179 40.4625 20.1045 40.1222 20.1045 39.5826C20.1045 38.9725 19.6 38.6676 18.7671 38.6676H11.9395L13.5231 36.6263H18.5676C20.3507 36.6263 22.6032 37.1894 22.6032 39.4301C22.6032 40.6501 21.8407 41.6591 20.5503 41.9172C20.8201 42.1166 21.1134 42.3982 21.6531 42.9495L23.096 44.4746Z" fill="white"/>
<path d="M33.0793 42.4568L31.519 44.4746H23.9639V36.6263H33.0558L31.4838 38.6676H26.404V39.6061H32.6218L31.2257 41.3893H26.404V42.4568H33.0793Z" fill="white"/>
<path d="M43.8125 44.4746H40.1406L37.7708 42.4099C36.9613 41.7059 36.5859 41.3657 36.3161 41.096C36.3279 41.4597 36.3512 41.8467 36.3512 42.2221V44.4746H33.9111V36.6263H36.3512V38.4445C36.3512 38.9256 36.3279 39.4066 36.3045 39.8173C36.6094 39.5356 37.0317 39.1368 37.7473 38.5386L40.0115 36.6263H43.531L40.5277 38.8788C39.4836 39.6648 39.0027 40.0165 38.4982 40.3217C38.944 40.6268 39.554 41.0607 40.5629 41.882L43.8125 44.4746Z" fill="white"/>
<path d="M47.9302 44.4746L49.3967 42.4568H51.3675C51.8368 42.4568 52.3881 42.4568 52.7635 42.4803C52.5524 42.1986 52.224 41.7177 51.9658 41.3424L50.5581 39.2658L46.8744 44.4746H44.0001L49.033 37.377C49.3616 36.9196 49.8425 36.4973 50.605 36.4973C51.3323 36.4973 51.8133 36.8845 52.1536 37.377L57.0574 44.4746H47.9302Z" fill="white"/>
<path d="M69.0569 44.4746H65.8073L64.0593 42.3982H60.3288V44.4746H57.9004V40.4625H64.728C65.4789 40.4625 66.0655 40.1222 66.0655 39.5826C66.0655 38.9725 65.5609 38.6676 64.728 38.6676H57.9004L59.4841 36.6263H64.5286C66.3117 36.6263 68.5642 37.1894 68.5642 39.4301C68.5642 40.6501 67.8016 41.6591 66.5111 41.9172C66.7811 42.1166 67.0742 42.3982 67.614 42.9495L69.0569 44.4746Z" fill="white"/>
<path d="M72.3883 44.4746H69.96V36.6263H72.3883V44.4746Z" fill="white"/>
<path d="M84.0969 41.049C84.0969 43.4187 82.4663 44.6035 79.2049 44.6035C75.4273 44.6035 73.7969 43.4187 73.7969 41.049V36.6262H76.2134V41.049C76.2134 42.2103 76.7061 42.5859 79.2049 42.5859C81.0704 42.5859 81.6568 42.1516 81.6568 41.049V36.6262H84.0969V41.049Z" fill="white"/>
<path d="M92.7425 39.7585C94.6548 39.7585 95.6872 40.4741 95.6872 41.9055C95.6872 43.5126 94.7135 44.4746 92.3202 44.4746H85.0117L86.5718 42.4568H92.508C93.0828 42.4568 93.3408 42.2927 93.3408 41.882C93.3408 41.483 93.0828 41.3189 92.508 41.3189H88.2377C86.2199 41.3189 85.293 40.4155 85.293 39.0664C85.293 37.5884 86.2785 36.6263 88.6601 36.6263H95.4759L93.9157 38.6676H88.4724C87.9093 38.6676 87.6394 38.8084 87.6394 39.2072C87.6394 39.6061 87.9093 39.7585 88.4724 39.7585H92.7425Z" fill="white"/>
</g>
</g>
<defs>
<clipPath id="clip0_9712_303">
<rect width="97.4079" height="48" fill="white"/>
</clipPath>
</defs>
</svg>
