<svg width="41" height="40" viewBox="0 0 41 40" fill="none" xmlns="http://www.w3.org/2000/svg">
<path d="M20.667 13.3334V35M20.667 13.3334C20.0641 10.849 19.0261 8.72504 17.6882 7.23854C16.3504 5.75203 14.7748 4.97192 13.167 4.99994C12.0619 4.99994 11.0021 5.43892 10.2207 6.22032C9.43931 7.00173 9.00033 8.06153 9.00033 9.1666C9.00033 10.2717 9.43931 11.3315 10.2207 12.1129C11.0021 12.8943 12.0619 13.3333 13.167 13.3333M20.667 13.3334C21.2699 10.849 22.3079 8.72504 23.6458 7.23854C24.9836 5.75203 26.5592 4.97192 28.167 4.99994C29.2721 4.99994 30.3319 5.43892 31.1133 6.22032C31.8947 7.00173 32.3337 8.06153 32.3337 9.1666C32.3337 10.2717 31.8947 11.3315 31.1133 12.1129C30.3319 12.8943 29.2721 13.3333 28.167 13.3333M32.3337 20V31.6667C32.3337 32.5507 31.9825 33.3986 31.3573 34.0237C30.7322 34.6488 29.8844 35 29.0003 35H12.3337C11.4496 35 10.6018 34.6488 9.97664 34.0237C9.35151 33.3986 9.00033 32.5507 9.00033 31.6667V20M5.66699 15C5.66699 14.558 5.84259 14.1341 6.15515 13.8215C6.46771 13.5089 6.89163 13.3334 7.33366 13.3334H34.0003C34.4424 13.3334 34.8663 13.5089 35.1788 13.8215C35.4914 14.1341 35.667 14.558 35.667 15V18.3334C35.667 18.7754 35.4914 19.1993 35.1788 19.5119C34.8663 19.8244 34.4424 20 34.0003 20H7.33366C6.89163 20 6.46771 19.8244 6.15515 19.5119C5.84259 19.1993 5.66699 18.7754 5.66699 18.3334V15Z" stroke="white" stroke-width="2" stroke-linecap="round" stroke-linejoin="round"/>
</svg>
