<svg width="40" height="40" viewBox="0 0 40 40" fill="none" xmlns="http://www.w3.org/2000/svg">
<path d="M25 13.3333H25.0167M5 26.6666L13.3333 18.3333C14.88 16.8449 16.7867 16.8449 18.3333 18.3333L26.6667 26.6666M23.3333 23.3333L25 21.6666C26.5467 20.1783 28.4533 20.1783 30 21.6666L35 26.6666M5 10C5 8.67392 5.52678 7.40215 6.46447 6.46447C7.40215 5.52678 8.67392 5 10 5H30C31.3261 5 32.5979 5.52678 33.5355 6.46447C34.4732 7.40215 35 8.67392 35 10V30C35 31.3261 34.4732 32.5979 33.5355 33.5355C32.5979 34.4732 31.3261 35 30 35H10C8.67392 35 7.40215 34.4732 6.46447 33.5355C5.52678 32.5979 5 31.3261 5 30V10Z" stroke="white" stroke-width="2" stroke-linecap="round" stroke-linejoin="round"/>
</svg>
