<svg width="60" height="60" viewBox="0 0 60 60" fill="none" xmlns="http://www.w3.org/2000/svg">
<path d="M43.9326 46.0174L51.0176 38.9324C51.4878 38.4623 51.8607 37.9042 52.1152 37.2899C52.3697 36.6757 52.5006 36.0173 52.5006 35.3524C52.5006 34.6875 52.3697 34.0292 52.1152 33.4149C51.8607 32.8006 51.4878 32.2425 51.0176 31.7724L33.2251 13.9824M15 22.4999H14.975M19.6475 14.9999H12.5625C11.2198 14.9999 9.93217 15.5333 8.98277 16.4827C8.03337 17.4321 7.5 18.7198 7.5 20.0624V27.1474C7.5 28.4899 8.0325 29.7774 8.9825 30.7274L24.2725 46.0174C24.7426 46.4876 25.3007 46.8606 25.915 47.115C26.5292 47.3695 27.1876 47.5005 27.8525 47.5005C28.5174 47.5005 29.1758 47.3695 29.79 47.115C30.4043 46.8606 30.9624 46.4876 31.4325 46.0174L38.5175 38.9324C38.9877 38.4623 39.3606 37.9042 39.6151 37.2899C39.8696 36.6757 40.0005 36.0173 40.0005 35.3524C40.0005 34.6875 39.8696 34.0292 39.6151 33.4149C39.3606 32.8006 38.9877 32.2425 38.5175 31.7724L23.225 16.4824C22.2761 15.5337 20.9893 15.0004 19.6475 14.9999Z" stroke="#FF7701" stroke-width="2" stroke-linecap="round" stroke-linejoin="round"/>
</svg>
